<svg height="512pt" viewBox="0 0 512 512.001" width="512pt" xmlns="http://www.w3.org/2000/svg"><path d="m512 256c0 141.386719-114.613281 256-256 256-141.382812 0-256-114.613281-256-256s114.617188-256 256-256c141.386719 0 256 114.613281 256 256zm0 0" fill="#005fdf"/><path d="m512 256c0-23.820312-3.265625-46.871094-9.351562-68.753906l-118.679688-118.679688-32.328125 32.328125 44.070313 44.070313.003906.007812-12.039063 12.042969-88.625-88.625-28.640625 28.636719 44.550782 44.546875-14.851563 14.851562-44.546875-44.546875-78.488281 78.488282 132.933593 132.933593-4.15625 4.15625-53.582031-53.585937c-6.984375-6.980469-15.847656-11.003906-24.996093-12.070313-6.53125-.761719-12.613282-3.445312-17.707032-7.492187l-31.847656-31.847656c-10.449219-10.449219-25.109375-14.265626-38.648438-11.46875-15.035156-5.5-32.621093-2.25-44.636718 9.765624l-6.070313 6.066407c-13.878906 13.878906-16.070312 35.195312-6.578125 51.421875.640625 1.101562.464844 2.5-.4375 3.402344-16.484375 16.484374-16.484375 43.460937 0 59.945312l55.792969 55.792969c2.011719 5.996093 5.382813 11.625 10.140625 16.382812l31.242188 31.269531 66.457031 66.511719c4.972656.289063 9.976562.449219 15.019531.449219 141.386719 0 256-114.613281 256-256zm0 0" fill="#00347b"/><path d="m135.074219 210.992188c13.535156-2.796876 28.195312 1.019531 38.644531 11.46875l24.28125 24.28125c.796875.796874 1.554688 1.617187 2.277344 2.464843 5.867187 6.878907 14.011718 11.546875 22.992187 12.59375 9.152344 1.066407 18.015625 5.089844 24.996094 12.070313l24.285156 24.285156c11.183594 11.183594 14.777344 27.195312 10.785157 41.484375-1.875 6.710937-.15625 13.914063 4.773437 18.84375l8.722656 8.722656c16.484375 16.484375 16.484375 43.460938 0 59.945313l-6.070312 6.070312c-11.765625 11.765625-28.875 15.128906-43.699219 10.101563-4.0625-1.378907-8.554688-.339844-11.589844 2.691406-16.484375 16.488281-43.460937 16.488281-59.945312 0l-32.25-32.25c-7.335938-7.335937-11.402344-16.75-12.203125-26.390625-.417969-4.984375-3.988281-9.089844-8.867188-10.183594-7.554687-1.695312-14.726562-5.464844-20.574219-11.316406l-24.285156-24.28125c-16.484375-16.484375-16.484375-43.460938 0-59.945312.902344-.902344 1.078125-2.296876.4375-3.402344-9.492187-16.226563-7.296875-37.542969 6.578125-51.421875l6.070313-6.066407c12.019531-12.015624 29.601562-15.265624 44.640625-9.765624zm0 0" fill="#ee5ca3"/><path d="m175.527344 446.015625c16.484375 16.488281 43.460937 16.488281 59.945312 0 3.035156-3.03125 7.527344-4.070313 11.589844-2.691406 14.824219 5.027343 31.933594 1.664062 43.699219-10.101563l6.070312-6.070312c16.484375-16.484375 16.484375-43.460938 0-59.945313l-8.722656-8.722656c-4.929687-4.929687-6.648437-12.128906-4.773437-18.84375 3.992187-14.289063.398437-30.300781-10.785157-41.484375l-24.28125-24.285156-116.316406 119.246094c1.6875 7.582031 5.457031 14.78125 11.328125 20.648437zm0 0" fill="#e91d81"/><path d="m209.328125 395.421875c-8.566406-8.5625-20.476563-10.539063-26.605469-4.410156-6.128906 6.128906-4.15625 18.042969 4.410156 26.605469 8.566407 8.566406 20.476563 10.539062 26.605469 4.410156 6.128907-6.128906 4.152344-18.039063-4.410156-26.605469zm0 0" fill="#d11372"/><path d="m114.207031 306.542969c-7.625-7.625-18.222656-9.378907-23.679687-3.925781-5.453125 5.453124-3.695313 16.054687 3.925781 23.675781 7.621094 7.621093 18.222656 9.378906 23.675781 3.925781s3.699219-16.054688-3.921875-23.675781zm0 0" fill="#e91d81"/><path d="m237.25 340.851562c-4.242188-4.242187-10.578125-4.777343-14.15625-1.203124-3.578125 3.578124-3.039062 9.914062 1.199219 14.15625 4.242187 4.242187 10.578125 4.777343 14.15625 1.203124 3.578125-3.578124 3.039062-9.917968-1.199219-14.15625zm0 0" fill="#d11372"/><path d="m154.164062 322.324219c-4.238281-4.242188-10.578124-4.777344-14.152343-1.203125-3.578125 3.578125-3.039063 9.914062 1.199219 14.15625 4.242187 4.242187 10.578124 4.777344 14.15625 1.203125 3.578124-3.578125 3.039062-9.917969-1.203126-14.15625zm0 0" fill="#e91d81"/><path d="m273.535156 380.453125c7.691406-7.695313 21.960938-6.171875 33.398438 3.007813 5.027344 14.824218 1.664062 31.929687-10.101563 43.691406l-.246093.246094c-5.832032-1.550782-11.820313-4.964844-16.941407-10.089844-11.867187-11.863282-14.601562-28.367188-6.109375-36.855469zm0 0" fill="#d11372"/><path d="m185.527344 253.902344c-13.59375-13.59375-32.5-16.730469-42.230469-7-9.726563 9.726562-6.589844 28.632812 7.003906 42.226562s32.496094 16.726563 42.226563 7c9.726562-9.726562 6.589844-28.632812-7-42.226562zm0 0" fill="#e91d81"/><path d="m298.34375 330.960938 78.488281-78.484376 21.210938 21.210938-78.484375 78.488281zm0 0" fill="#ff9b00"/><path d="m391.679688 237.625 28.640624-28.636719 21.210938 21.214844-28.636719 28.636719zm0 0" fill="#ff9b00"/><path d="m270.015625 182.519531 68.648437-68.648437 21.210938 21.210937-68.648438 68.648438zm0 0" fill="#ffb942"/><path d="m351.636719 100.898438 32.328125-32.328126 21.214844 21.210938-32.332032 32.328125zm0 0" fill="#ffb942"/><g fill="#ff9b00"><path d="m224.511719 228.019531 32.332031-32.328125 21.210938 21.210938-32.328126 32.328125zm0 0"/><path d="m319.5 221.183594 78.488281-78.488282 21.214844 21.214844-78.488281 78.488282zm0 0"/><path d="m276.011719 264.671875 28.640625-28.636719 21.210937 21.210938-28.636719 28.636718zm0 0"/></g><path d="m173.070312 190.367188 78.488282-78.488282 21.214844 21.210938-78.488282 78.488281zm0 0" fill="#ffb942"/><path d="m266.410156 97.027344 28.636719-28.636719 21.214844 21.214844-28.640625 28.636719zm0 0" fill="#ffb942"/></svg>