<svg height="512pt" viewBox="0 0 512 512" width="512pt" xmlns="http://www.w3.org/2000/svg"><path d="m512 256c0 56.53125-18.328125 108.78125-49.351562 151.128906-46.578126 63.582032-121.796876 43.371094-206.648438 43.371094s-160.070312 20.210938-206.648438-43.371094c-31.023437-42.347656-49.351562-94.597656-49.351562-151.128906 0-141.378906 114.621094-256 256-256s256 114.621094 256 256zm0 0" fill="#ee5ca3"/><path d="m256 450.5c84.851562 0 160.070312 20.210938 206.648438-43.371094 31.023437-42.347656 49.351562-94.597656 49.351562-151.128906 0-8.484375-.425781-16.867188-1.230469-25.140625l-82.382812-82.371094c-3.492188-3.8125-8.128907-6.554687-13.371094-7.679687l-46.996094-46.957032c-27.246093-28.292968-67.316406-45.242187-112.019531-45.242187-65.535156 0-121.164062 36.394531-140.929688 91.628906h-12.742187c-14.011719 0-25.367187 11.359375-25.367187 25.367188v46.238281c0 6.820312 2.695312 13.011719 7.074218 17.566406l78.328125 77.925782v42.433593h-46.59375c-32.347656 0-59.429687 24.492188-66.417969 57.359375 46.578126 63.582032 121.796876 43.371094 206.648438 43.371094zm0 0" fill="#e91d81"/><path d="m462.648438 407.128906c-46.578126 63.582032-121.796876 104.871094-206.648438 104.871094s-160.070312-41.289062-206.648438-104.871094c6.988282-32.867187 34.070313-57.359375 66.417969-57.359375h280.460938c32.347656 0 59.429687 24.492188 66.417969 57.359375zm0 0" fill="#fff"/><path d="m192.363281 437c0 16.570312-13.433593 30-30 30-16.570312 0-30-13.429688-30-30s13.429688-30 30-30c16.566407 0 30 13.429688 30 30zm0 0" fill="#cac7cd"/><path d="m462.648438 407.128906c-46.578126 63.582032-121.796876 104.871094-206.648438 104.871094v-162.230469h140.230469c32.347656 0 59.429687 24.492188 66.417969 57.359375zm0 0" fill="#fff5ca"/><path d="m129.339844 237.210938h-27.011719c-14.011719 0-25.367187-11.355469-25.367187-25.367188v-46.238281c0-14.007813 11.355468-25.363281 25.367187-25.363281h27.011719zm0 0" fill="#ffe767"/><path d="m409.671875 237.210938h-27.011719v-96.972657h27.011719c14.011719 0 25.367187 11.359375 25.367187 25.367188v46.238281c0 14.007812-11.355468 25.367188-25.367187 25.367188zm0 0" fill="#ffd000"/><path d="m349.636719 349.773438s-46.152344 9.960937-93.636719 9.960937-93.636719-9.960937-93.636719-9.960937v-63.753907h187.273438zm0 0" fill="#6977eb"/><path d="m349.640625 286.019531v63.75s-46.160156 9.960938-93.640625 9.960938v-73.710938zm0 0" fill="#405be9"/><path d="m107.367188 185.40625c0-79.707031 66.546874-136.796875 148.632812-136.796875s148.632812 57.089844 148.632812 136.796875-34.691406 137.472656-148.632812 137.472656-148.632812-57.765625-148.632812-137.472656zm0 0" fill="#fff"/><path d="m404.628906 185.410156c0 51.300782-14.367187 93.511719-54.988281 117.078125-22.492187 13.050781-53.03125 20.390625-93.640625 20.390625v-274.269531c82.089844 0 148.628906 57.089844 148.628906 136.800781zm0 0" fill="#fff5ca"/><path d="m346.078125 136.328125s-35.785156-18.65625-90.078125-18.65625-90.078125 18.65625-90.078125 18.65625-11.984375 30.738281-11.984375 64.3125c0 33.582031 11.984375 61.800781 11.984375 61.800781s35.785156 18.660156 90.078125 18.660156 90.078125-18.660156 90.078125-18.660156 11.984375-28.21875 11.984375-61.800781c0-33.574219-11.984375-64.3125-11.984375-64.3125zm0 0" fill="#00f8fe"/><path d="m358.058594 200.640625c0 33.578125-11.980469 61.800781-11.980469 61.800781s-35.789063 18.660156-90.078125 18.660156v-163.429687c54.289062 0 90.078125 18.65625 90.078125 18.65625s11.980469 30.742187 11.980469 64.3125zm0 0" fill="#00dae1"/><path d="m206.5 159c0 5.800781-4.699219 10.5-10.5 10.5s-10.5-4.699219-10.5-10.5 4.699219-10.5 10.5-10.5 10.5 4.699219 10.5 10.5zm0 0" fill="#fff"/></svg>